<?xml version="1.0" encoding="UTF-8" standalone="no"?>
<!-- Created with Inkscape (http://www.inkscape.org/) -->

<svg
   xmlns:dc="http://purl.org/dc/elements/1.1/"
   xmlns:cc="http://creativecommons.org/ns#"
   xmlns:rdf="http://www.w3.org/1999/02/22-rdf-syntax-ns#"
   xmlns:svg="http://www.w3.org/2000/svg"
   xmlns="http://www.w3.org/2000/svg"
   xmlns:sodipodi="http://sodipodi.sourceforge.net/DTD/sodipodi-0.dtd"
   xmlns:inkscape="http://www.inkscape.org/namespaces/inkscape"
   width="210mm"
   height="297mm"
   viewBox="0 0 744.09448819 1052.3622047"
   id="svg2"
   version="1.1"
   inkscape:version="0.91 r13725"
   sodipodi:docname="redrawingROUND2INWORK.svg">
  <defs
     id="defs4" />
  <sodipodi:namedview
     id="base"
     pagecolor="#ffffff"
     bordercolor="#666666"
     borderopacity="1.0"
     inkscape:pageopacity="0.0"
     inkscape:pageshadow="2"
     inkscape:zoom="0.7"
     inkscape:cx="-49.801066"
     inkscape:cy="980.56467"
     inkscape:document-units="px"
     inkscape:current-layer="layer2"
     showgrid="false"
     inkscape:window-width="1366"
     inkscape:window-height="725"
     inkscape:window-x="0"
     inkscape:window-y="0"
     inkscape:window-maximized="1" />
  <metadata
     id="metadata7">
    <rdf:RDF>
      <cc:Work
         rdf:about="">
        <dc:format>image/svg+xml</dc:format>
        <dc:type
           rdf:resource="http://purl.org/dc/dcmitype/StillImage" />
        <dc:title></dc:title>
      </cc:Work>
    </rdf:RDF>
  </metadata>
  <g
     inkscape:groupmode="layer"
     id="layer2"
     inkscape:label="work"
     sodipodi:insensitive="true">
    <g
       id="g3667">
      <path
         inkscape:connector-curvature="0"
         id="path3444"
         d="m 609.62706,803.3596 c 0,0 -7.07107,26.01143 -8.33376,27.02158 -1.26269,1.01016 -6.56599,2.02031 -6.56599,2.02031 l -1.51523,-9.34391 -0.75761,22.22335 -5.05076,4.79823 c 0,0 -4.29315,-6.31346 -4.04061,-5.3033 0.25253,1.01015 -1.76777,7.07106 -2.27285,8.58629 -0.50507,1.51523 -6.31345,4.54569 -6.31345,4.54569 l -4.29315,-6.31345 c 0,0 -2.0203,4.04061 -2.27284,5.55584 -0.25254,1.51522 -1.26269,5.55583 -3.03046,6.56599 -1.76777,1.01015 -9.34391,1.51523 -9.34391,1.51523"
         style="fill:none;fill-rule:evenodd;stroke:#000000;stroke-width:1px;stroke-linecap:butt;stroke-linejoin:miter;stroke-opacity:1" />
      <path
         inkscape:connector-curvature="0"
         id="path3446"
         d="m 583.21429,636.29078 -9.64286,-16.07143 -36.07143,11.07143 -34.64286,28.57142 -16.78571,19.64286 7.5,31.42857"
         style="fill:none;fill-rule:evenodd;stroke:#000000;stroke-width:1px;stroke-linecap:butt;stroke-linejoin:miter;stroke-opacity:1" />
      <path
         inkscape:connector-curvature="0"
         id="path3487"
         d="m 442.5,469.14792 c -0.89286,0.71428 -26.42857,37.67857 -26.42857,37.67857"
         style="fill:none;fill-rule:evenodd;stroke:#000000;stroke-width:1px;stroke-linecap:butt;stroke-linejoin:miter;stroke-opacity:1" />
      <path
         inkscape:connector-curvature="0"
         id="path3489"
         d="M 323.75,497.54077 301.96429,466.82649"
         style="fill:none;fill-rule:evenodd;stroke:#000000;stroke-width:1px;stroke-linecap:butt;stroke-linejoin:miter;stroke-opacity:1" />
      <path
         inkscape:connector-curvature="0"
         id="path3491"
         d="m 588.21429,1063.0765 -21.78572,-60.7143 26.07143,63.5714 -9.89452,-51.1996 -36.61803,-65.65989 24.74874,28.53681 -2.02031,-15.90991"
         style="fill:none;fill-rule:evenodd;stroke:#000000;stroke-width:1px;stroke-linecap:butt;stroke-linejoin:miter;stroke-opacity:1" />
      <path
         sodipodi:nodetypes="cccscc"
         inkscape:connector-curvature="0"
         id="path3493"
         d="m 615.68798,999.3292 -12.12183,12.1218 -4.67196,5.5559 c 0,0 -8.30306,1.8699 -11.23794,-3.1567 -3.81819,-6.5395 5.55583,-15.53116 5.55583,-15.53116 l 9.84899,-7.3236"
         style="fill:none;fill-rule:evenodd;stroke:#000000;stroke-width:1px;stroke-linecap:butt;stroke-linejoin:miter;stroke-opacity:1" />
      <path
         inkscape:connector-curvature="0"
         id="path3495"
         d="m 599.90434,1018.6484 c 0,0 1.38896,-2.3991 0,0.7576 -1.38896,3.1567 -1.89403,9.3439 -1.89403,9.3439 l 0.38255,5.5766 10.71428,-2.5 15.53572,-25.3572 -15.89286,26.0715 5.71429,9.2857 12.14285,-7.5 5,-2.8572 -1.96428,-36.42852 3.21428,43.21432 7.32143,3.3928 4.64286,-11.9643"
         style="fill:none;fill-rule:evenodd;stroke:#000000;stroke-width:1px;stroke-linecap:butt;stroke-linejoin:miter;stroke-opacity:1" />
      <g
         id="g3625">
        <g
           id="g3517">
          <g
             id="g3448">
            <g
               id="g3387">
              <path
                 inkscape:connector-curvature="0"
                 id="path3367"
                 d="m 310,466.64792 -52.85714,5.71428 -31.42857,10 -67.14286,150 20.98319,12.65599 -7.32361,43.6891 -3.03046,25.75889 c 0,0 -7.07107,10.6066 -7.57614,12.6269 -0.50508,2.02031 -7.07107,20.70813 -7.07107,20.70813 0,0 3.03046,-25.25381 -0.50508,5.05076 -3.53553,30.30458 4.54569,-14.14213 -3.53553,31.81981 -8.08122,45.96194 -19.1929,77.78175 -19.1929,77.78175 L 110.6117,882.1515 c 0,0 -2.0203,1.01015 -4.04061,7.57614 -2.0203,6.566 -13.637056,15.65737 -13.637056,15.65737 l -3.535534,11.11168 1.010153,20.70812 4.04061,5.05077 -0.505076,19.69797 3.030457,4.54569 0.505077,20.20305 24.748739,24.24371 7.57614,2.5253 8.5863,9.5965 12.12183,1.5152 6.06091,-4.5457 -1.01015,-42.93146 -3.03046,-4.04061 -1.01015,-24.74874 c 0,0 -8.58629,35.35534 7.57615,-5.55584 16.16244,-40.91117 15.15228,-66.16499 15.15228,-66.16499 l 40.40611,-68.69037 -4.54569,73.74113 6.56599,8.5863 -8.5863,34.34519 -13.13198,105.56089 -3.03046,30.8097 336.3808,-0.5051 -5.05076,-21.7183 -5.55584,-21.7182 -8.08122,-27.77923 -19.1929,-40.91118 0,-19.1929 -17.67767,-43.94163 5.55584,-1.51523 -0.50508,-18.68782 5.55584,-1.01016 20.20305,16.16245 16.66752,16.16244 20.70813,24.24366 21.2132,30.30457 27.27412,47.47717 13.63706,-7.07106 -2.52538,-12.12183 -8.08122,-12.12184 -13.63706,-41.41625 -8.08122,-15.15229 -1.51523,-16.16244 -20.20305,-44.44671 -32.32488,-75.76144 -3.03046,-26.76904 c 0,0 23.23351,44.95178 -0.50508,-0.50508 -23.73858,-45.45686 -26.76904,-43.94164 -26.76904,-43.94164 l -10.55584,-15.65301 c 0,0 8.4235,24.46519 0.50508,1.51523 -6.26865,-18.16843 -8.32632,-12.16568 -8.32632,-12.16568 0,0 -12.84229,16.7306 -21.93366,37.43872 -9.09137,20.70813 -15.26868,41.88108 -15.26868,41.88108 l 18.1425,39.89232 13.69834,21.74366 10.10152,27.77919 6.06092,20.20305"
                 style="fill:none;fill-rule:evenodd;stroke:#000000;stroke-width:1px;stroke-linecap:butt;stroke-linejoin:miter;stroke-opacity:1"
                 sodipodi:nodetypes="cccccccscssccscccccccccccccccscccccccccccccccccccccccccccccccsccscsccccc" />
              <path
                 inkscape:connector-curvature="0"
                 id="path3371"
                 d="m 206.32366,940.99289 7.82868,-5.55584 6.56599,-8.08122 7.57615,-9.84899 3.03045,-0.25254 -3.78807,-11.86929 -11.86929,-15.9099"
                 style="fill:none;fill-rule:evenodd;stroke:#000000;stroke-width:1px;stroke-linecap:butt;stroke-linejoin:miter;stroke-opacity:1" />
              <path
                 inkscape:connector-curvature="0"
                 id="path3373"
                 d="m 470.22601,881.64642 c -14.64721,5.05077 -31.31473,10.60661 -35.86042,13.63706 -4.54568,3.03046 -24.24366,18.68783 -24.24366,18.68783 l -27.77919,26.76904 c 0,0 -19.69798,16.16244 -24.74874,19.44543 -5.05076,3.283 -34.34519,11.61676 -34.34519,11.61676 0,0 -11.86929,-1.26269 -18.68782,-3.283 -6.81853,-2.0203 -28.28427,-5.80837 -31.8198,-9.09137 -3.53554,-3.283 -28.03174,-22.72843 -28.03174,-22.72843 L 229.55717,915.234"
                 style="fill:none;fill-rule:evenodd;stroke:#000000;stroke-width:1px;stroke-linecap:butt;stroke-linejoin:miter;stroke-opacity:1" />
              <path
                 inkscape:connector-curvature="0"
                 id="path3375"
                 d="m 313.92857,1044.5051 -14.64286,-23.2143 -12.5,-32.85717 L 282.5,962.71935"
                 style="fill:none;fill-rule:evenodd;stroke:#000000;stroke-width:1px;stroke-linecap:butt;stroke-linejoin:miter;stroke-opacity:1" />
              <path
                 inkscape:connector-curvature="0"
                 id="path3377"
                 d="m 316.07143,971.64792 -2.85714,71.42858 1.07142,1.0714"
                 style="fill:none;fill-rule:evenodd;stroke:#000000;stroke-width:1px;stroke-linecap:butt;stroke-linejoin:miter;stroke-opacity:1" />
              <path
                 inkscape:connector-curvature="0"
                 id="path3379"
                 d="m 390.71429,1012.0051 -38.92858,27.8571 -27.52674,23.6117 -42.93149,-42.9315 -22.72843,-29.29442"
                 style="fill:none;fill-rule:evenodd;stroke:#000000;stroke-width:1px;stroke-linecap:butt;stroke-linejoin:miter;stroke-opacity:1" />
              <path
                 inkscape:connector-curvature="0"
                 id="path3381"
                 d="m 471.74124,965.48909 -1.01015,-10.60661 -21.21321,3.53554 -24.24366,-5.55584 -31.8198,-24.74874"
                 style="fill:none;fill-rule:evenodd;stroke:#000000;stroke-width:1px;stroke-linecap:butt;stroke-linejoin:miter;stroke-opacity:1" />
              <path
                 sodipodi:nodetypes="cccccccscscccscccscscscccccccccccc"
                 inkscape:connector-curvature="0"
                 id="path3383"
                 d="m 643.97225,1030.6439 c 4.04061,-14.6472 9.09137,-30.3046 9.09137,-30.3046 l 2.02031,-34.34514 -9.59645,-36.87057 -32.82996,-53.53808 -3.03046,-25.75889 0,-94.95434 c 0,0 3.53554,14.64721 -0.50507,-3.03046 -4.04062,-17.67767 -17.1726,-36.87057 -17.1726,-36.87057 0,0 -1.51523,22.22336 0,-3.03045 1.51523,-25.25382 -10.10152,-75.25637 -10.10152,-75.25637 l 15.65736,-12.12183 -8.5863,-20.70813 c 0,0 36.3655,72.73099 0,2.52539 -36.36549,-70.20561 -50.00255,-91.92389 -50.00255,-91.92389 l -60.60915,-25.75889 -25.75889,-2.27284 c 0,0 -23.23059,1.43471 -4.79822,-26.76904 20.96067,-32.07234 40.91117,-48.73986 40.91117,-48.73986 0,0 -7.76619,19.25709 -5.55583,39.39594 2.27284,20.70813 9.59645,14.89975 9.59645,14.89975 0,0 -4.79823,-12.87944 3.78807,-27.02157 26.1139,-43.01107 32.32488,-40.40611 32.32488,-40.40611 l 0.50507,30.30458 -11.61675,27.27412 24.74874,-27.77919 17.67767,-34.85027 0.50507,-31.8198 19.1929,39.90102 -2.52538,-42.4264 -17.67767,-29.7995 32.32488,7.07106 -37.88072,-32.32488 c 0,0 24.76015,-11.03208 49.09663,-76.91533"
                 style="fill:none;fill-rule:evenodd;stroke:#000000;stroke-width:1px;stroke-linecap:butt;stroke-linejoin:miter;stroke-opacity:1" />
              <path
                 inkscape:connector-curvature="0"
                 id="path3385"
                 d="M 602.85714,227.18363 601.78572,163.07649 591.96429,134.14792 542.85714,45.933632 523.21429,91.290775 465,164.14792 c 0,0 -23.92857,-14.64286 -26.42857,-15 -2.5,-0.35715 -35,-1.42857 -37.5,0.35714 -2.5,1.78571 -30.35714,10 -30.35714,10 l -33.92858,-3.21429 c 0,0 -21.42857,-7.5 -23.21428,-7.85714 -1.78572,-0.35714 -30,13.92857 -30,13.92857 l -57.5,-62.85714 -13.21429,-25.714285 -8.21428,-29.642858 -50.35715,81.071433 -15.71428,45 0.35714,53.21428 19.28572,41.42857 31.78571,41.07143 -15.35714,39.28572 -3.21429,29.64285 9.64286,27.5 2.14286,-29.28571 L 190,364.14792 c 0,0 3.92857,35.35714 4.28571,36.78571 0.35715,1.42857 16.78572,27.5 16.78572,27.5 l 26.42857,16.78572 -15.35714,-25 -5,-16.42857 1.07143,-17.5 35.35714,43.21428 18.57143,29.64286 -6.42857,-35.35714 27.85714,26.78571 8.21428,16.42857"
                 style="fill:none;fill-rule:evenodd;stroke:#000000;stroke-width:1px;stroke-linecap:butt;stroke-linejoin:miter;stroke-opacity:1" />
            </g>
            <path
               style="fill:none;fill-rule:evenodd;stroke:#000000;stroke-width:1px;stroke-linecap:butt;stroke-linejoin:miter;stroke-opacity:1"
               d="m 415.71429,506.64792 -10,24.28571 -26.42858,38.57143 L 345,596.64792 l -24.28571,7.85714 -11.42858,-6.42857 -10,-20.71429 -0.71428,-27.14285 15.71428,-30.71429 8.57143,-22.85714 24.28572,22.14286 17.14285,5.71428 23.57143,-1.42857 z"
               id="path3398"
               inkscape:connector-curvature="0" />
            <path
               style="fill:none;fill-rule:evenodd;stroke:#000000;stroke-width:1px;stroke-linecap:butt;stroke-linejoin:miter;stroke-opacity:1"
               d="M 338.57143,469.50506 355,493.07649 l 12.14286,4.28571 20,-2.14285 10,-7.14286 13.57143,-17.14286 -3.57143,-7.85714 -24.28572,-5 -35,2.14286 z"
               id="path3400"
               inkscape:connector-curvature="0" />
            <path
               style="fill:none;fill-rule:evenodd;stroke:#000000;stroke-width:1px;stroke-linecap:butt;stroke-linejoin:miter;stroke-opacity:1"
               d="m 398.39286,486.29077 -4.82143,-5.35714 c 0,0 -6.25,0.53572 -8.75,2.14286 -2.5,1.60714 -1.25,8.39286 -1.25,8.39286 l 4.82143,3.03571 z"
               id="path3402"
               inkscape:connector-curvature="0" />
            <path
               style="fill:none;fill-rule:evenodd;stroke:#000000;stroke-width:1px;stroke-linecap:butt;stroke-linejoin:miter;stroke-opacity:1"
               d="m 360,494.50506 8.57143,-3.03571 0.53571,-8.75 c 0,0 -3.39285,-2.85715 -4.28571,-2.85715 -0.89286,0 -6.78571,1.07143 -8.39286,1.07143 -1.60714,0 -6.60714,3.92857 -6.60714,3.92857 l 5.35714,8.03572 z"
               id="path3404"
               inkscape:connector-curvature="0" />
            <path
               style="fill:none;fill-rule:evenodd;stroke:#000000;stroke-width:1px;stroke-linecap:butt;stroke-linejoin:miter;stroke-opacity:1"
               d="m 487.90368,411.16788 c 0,0 9.09137,-24.74874 8.5863,-25.75889 -0.50508,-1.01016 4.79822,-12.87945 4.79822,-12.87945 l -7.82868,0 4.54569,-12.12183 23.2335,-20.45559 -20.96066,6.56599 -4.04061,-25.00127 14.89975,-18.94036 9.34391,-27.27412 10.35406,1.76777 16.16244,18.94036 8.08122,8.08122 36.3655,31.31472 -31.81981,-7.3236 -20.70813,-16.66752 21.71828,18.43529 16.66752,28.28427 2.52538,41.16371 -17.42513,-41.92133 -20.45559,-23.73858 15.65737,30.30457 -1.2627,36.87057 -20.20305,34.09265 -17.17259,18.18275 10.35406,-26.51651 2.02031,-26.76904 -1.51523,-24.24366 -8.33376,26.01143 -25.75889,35.1028 -4.29315,10.85914 c 0,0 -1.01015,7.82868 -0.75761,9.34391 0.25254,1.51523 1.01015,8.83883 1.01015,8.83883 l -5.55584,-4.04061 -1.76776,-23.99112 2.77792,-16.66752 14.39467,-28.03173 z"
               id="path3410"
               inkscape:connector-curvature="0" />
            <path
               style="fill:none;fill-rule:evenodd;stroke:#000000;stroke-width:1px;stroke-linecap:butt;stroke-linejoin:miter;stroke-opacity:1"
               d="m 601.04076,171.00411 -22.72843,-58.08377 -30.80965,-47.982249 -7.57614,52.022859 -12.62691,34.85026 -17.17259,34.85026 -4.04061,35.86042 5.05076,19.1929 8.58629,34.34518"
               id="path3412"
               inkscape:connector-curvature="0" />
            <path
               style="fill:none;fill-rule:evenodd;stroke:#000000;stroke-width:1px;stroke-linecap:butt;stroke-linejoin:miter;stroke-opacity:1"
               d="m 189.90868,305.85947 15.15229,-15.65736 24.74873,-18.18275 8.5863,-49.49747 -1.01015,-38.3858 -16.66752,-33.33503 -16.66752,-37.88072 -5.05076,-45.961944 -45.96194,60.104074"
               id="path3414"
               inkscape:connector-curvature="0" />
            <path
               style="fill:none;fill-rule:evenodd;stroke:#000000;stroke-width:1px;stroke-linecap:butt;stroke-linejoin:miter;stroke-opacity:1"
               d="m 292.43916,157.87213 -27.77919,43.94163 0.50507,6.56599 22.22336,-28.28427 -9.09137,39.39595 -5.55584,25.25381 10.6066,35.35534 11.61675,14.64722 -9.59645,-29.7995 -2.0203,-26.26397 7.57614,-29.29442 -1.01015,31.8198 11.61675,31.31473 19.1929,24.24366 -7.57614,-22.22336 -10.10153,-34.34518 0,-20.20305 7.07107,-32.32488 -2.0203,43.43655 8.58629,30.30458 20.20305,32.32488 -8.58629,-43.94163 39.90102,86.36804 3.53554,9.59645 -0.50508,-20.20305 -29.29442,-65.15484 19.1929,25.75889 20.70812,26.26396 c 6.52716,7.99708 4.23786,28.04678 6.35678,42.07017 l 7.78536,-23.38234 -1.01015,-16.66752 -10.10153,-29.7995 15.15229,28.78935 2.0203,-26.26397 -5.05076,-23.23351 14.14214,41.41626 5.55584,-18.18275 -0.50508,-31.31473 5.55584,24.24366 -0.50508,26.26397 -5.05076,15.15229 13.13198,-18.18275 6.56599,-22.72843 -1.51523,-27.7792 3.03046,30.80966 14.14214,-28.28427 6.06091,-21.71828 -14.14213,-36.87057 13.13198,22.72843 7.57614,30.30458 -2.0203,29.7995 7.07107,-24.24366 1.51523,-26.26397 -7.07107,-29.29442 -12.12183,-22.22336 20.20305,25.25381 5.05076,6.06092 1.51523,-9.59645 -22.22336,-30.80965 -14.64721,-7.57615 14.14214,1.01016 -7.07107,-8.5863"
               id="path3416"
               inkscape:connector-curvature="0"
               sodipodi:nodetypes="cccccccccccccccccccccccccccccccccccccccccccccccccccccccccccccc" />
            <path
               style="fill:none;fill-rule:evenodd;stroke:#000000;stroke-width:1px;stroke-linecap:butt;stroke-linejoin:miter;stroke-opacity:1"
               d="m 505.07627,310.40516 -5.05076,-27.27412 -19.69797,-38.3858 -11.11168,-14.14213"
               id="path3418"
               inkscape:connector-curvature="0" />
            <path
               style="fill:none;fill-rule:evenodd;stroke:#000000;stroke-width:1px;stroke-linecap:butt;stroke-linejoin:miter;stroke-opacity:1"
               d="m 228.79955,273.02952 7.07107,30.30457 9.09137,11.61676 0.50508,-29.29443 8.08122,-17.67767 8.08122,12.62691 -1.51523,-19.69797 8.5863,-17.1726 5.05076,-5.55584"
               id="path3420"
               inkscape:connector-curvature="0" />
            <path
               style="fill:none;fill-rule:evenodd;stroke:#000000;stroke-width:1px;stroke-linecap:butt;stroke-linejoin:miter;stroke-opacity:1"
               d="m 191.92898,380.10569 7.07107,-31.81981 7.57615,-16.16244 -22.72844,38.89087"
               id="path3422"
               inkscape:connector-curvature="0" />
            <path
               style="fill:none;fill-rule:evenodd;stroke:#000000;stroke-width:1px;stroke-linecap:butt;stroke-linejoin:miter;stroke-opacity:1"
               d="m 172.73609,358.38741 34.85026,-52.02286 -33.33504,37.88072"
               id="path3424"
               inkscape:connector-curvature="0" />
            <path
               style="fill:none;fill-rule:evenodd;stroke:#000000;stroke-width:1px;stroke-linecap:butt;stroke-linejoin:miter;stroke-opacity:1"
               d="m 245.46707,312.93054 29.7995,27.7792 37.37564,18.18274 30.80966,6.06092 -18.18275,-21.71828 -38.3858,-37.37565 -26.26396,-15.65736 -14.64722,0 z"
               id="path3426"
               inkscape:connector-curvature="0" />
            <path
               style="fill:none;fill-rule:evenodd;stroke:#000000;stroke-width:1px;stroke-linecap:butt;stroke-linejoin:miter;stroke-opacity:1"
               d="m 496.99505,320.00161 -28.28427,23.73858 c 0,0 -26.76904,13.13199 -30.80965,14.14214 -4.04061,1.01015 -38.89087,6.56599 -38.89087,6.56599 l -5.05077,-0.50508 2.52538,-22.72843 18.18275,-23.73858 37.37564,-20.70813 35.35534,-9.09137 13.13199,1.01015"
               id="path3430"
               inkscape:connector-curvature="0" />
            <path
               style="fill:none;fill-rule:evenodd;stroke:#000000;stroke-width:1px;stroke-linecap:butt;stroke-linejoin:miter;stroke-opacity:1"
               d="m 179.30208,644.26058 c 0,0 9.59645,-9.59645 10.10152,-12.62691 0.50508,-3.03046 3.03046,-17.17259 3.03046,-17.17259 l 8.08122,-4.04061 3.03046,-0.50508 1.51523,18.18275 7.07106,18.68782 9.59645,17.67767 -4.04061,25.75889 7.07107,18.18274 11.11168,39.90103 -8.5863,27.77919 -13.13198,32.82996 -12.62691,19.1929 -12.12183,-12.62691 1.51523,-15.65736 -17.17259,24.74874 -6.06092,-6.566 5.55584,-16.66751 -11.61675,20.20305 -7.07107,-1.01015 -4.04061,-38.89088"
               id="path3432"
               inkscape:connector-curvature="0" />
            <path
               style="fill:none;fill-rule:evenodd;stroke:#000000;stroke-width:1px;stroke-linecap:butt;stroke-linejoin:miter;stroke-opacity:1"
               d="m 226.77925,630.11844 10.6066,28.78935 -2.52538,23.73858 7.07106,24.24366 8.08123,28.78935 1.01015,31.31473 -10.10153,22.72843 -14.14213,53.03301 7.57614,12.12183 18.68782,8.08122 4.04061,-22.72843 -13.13198,-4.54569 0.50508,-14.14213 7.07106,-24.74874 10.10153,-25.75889 2.0203,-14.14213 -0.50507,-12.12184 -4.04061,-16.66751 -10.6066,-30.30458 0,-24.24366 1.51523,-15.15229 -5.55584,-24.24366 z"
               id="path3434"
               inkscape:connector-curvature="0" />
            <path
               style="fill:none;fill-rule:evenodd;stroke:#000000;stroke-width:1px;stroke-linecap:butt;stroke-linejoin:miter;stroke-opacity:1"
               d="m 271.22596,868.00937 2.0203,-35.86042 6.06092,-29.29442 8.08122,-28.28428 -0.50508,-29.7995 -10.6066,-44.44671 -1.01015,-51.51778 -11.61676,-6.06091 -3.53553,47.98224 6.06092,22.72844 7.57614,32.82995 0.50508,30.80966 -13.13199,54.54823 -5.05076,32.82996 z"
               id="path3436"
               inkscape:connector-curvature="0" />
            <path
               style="fill:none;fill-rule:evenodd;stroke:#000000;stroke-width:1px;stroke-linecap:butt;stroke-linejoin:miter;stroke-opacity:1"
               d="m 317.1879,660.92809 -8.08122,-2.0203 -3.03046,91.4188 -14.14213,-58.08377 -3.03046,-16.16244 0.50507,-22.72843 -9.59644,-2.02031 -1.51523,39.90103 9.09137,46.46702 3.03046,28.28427 -4.04061,23.23351 -10.10153,41.92133 -3.53553,38.38579 11.61675,2.02031 2.02031,-23.23351 8.08122,-38.89087 2.0203,51.51778 3.03046,12.6269 10.10153,0.50508 2.0203,-49.49747 7.07107,-59.599 -3.53554,-56.56855 z"
               id="path3438"
               inkscape:connector-curvature="0" />
            <path
               style="fill:none;fill-rule:evenodd;stroke:#000000;stroke-width:1px;stroke-linecap:butt;stroke-linejoin:miter;stroke-opacity:1"
               d="m 369.71583,867.50429 2.52538,-62.62946 14.64722,56.56854 9.59644,-1.01015 -21.2132,-94.95434 22.22336,-107.07617 -19.1929,3.53554 -10.10153,67.68022 -3.53553,-67.17515 -11.61676,1.51523 6.06092,103.54064 1.01015,104.55079 z"
               id="path3440"
               inkscape:connector-curvature="0" />
            <path
               style="fill:none;fill-rule:evenodd;stroke:#000000;stroke-width:1px;stroke-linecap:butt;stroke-linejoin:miter;stroke-opacity:1"
               d="m 331.83511,663.95855 -11.11168,0.50508 -0.50507,106.57109 -7.57615,81.31728 4.54569,21.71828 30.80965,-0.50508 7.57615,-9.09137 0,-48.48732 -7.07107,-49.49748 2.0203,-102.53048 -11.61675,-0.50508 -1.01015,105.05587 -1.01016,87.88327 -4.04061,1.01015 -1.01015,-20.70812 1.01015,-70.71068 z"
               id="path3442"
               inkscape:connector-curvature="0" />
          </g>
        </g>
        <path
           style="fill:none;fill-rule:evenodd;stroke:#000000;stroke-width:1px;stroke-linecap:butt;stroke-linejoin:miter;stroke-opacity:1"
           d="m 406.08132,462.43312 -2.52538,-30.80965 10.10153,-32.82996 7.57614,-13.63706 18.18275,-16.66752 21.71828,-7.57614 23.23351,-5.55584 16.16244,-10.10153 16.66751,-4.54568 -18.18274,20.70812 -13.63706,11.11168 13.13198,0 -11.11168,39.39595 -37.88072,40.91118 -20.20305,31.8198 -21.71828,27.27412 -23.23351,11.61676 -21.71828,1.01015 -19.19289,-7.07107 -28.28428,-33.84011 -19.69797,-31.31473 -31.31473,-31.31473 -8.5863,-20.70812 -11.61675,-24.74874 25.25381,28.28427 5.55584,3.53553 -4.04061,-13.63706 -30.80965,-38.89087 -10.6066,-14.14213 28.78935,14.64721 22.22335,3.53553 30.30458,14.64721 26.26396,27.7792 5.55584,16.66752 1.01016,23.2335 -4.54569,27.27412 1.01015,1.51523 14.14214,23.23351 14.14213,4.54569 20.20305,-4.04061 20.70813,-21.71828 z"
           id="path3552"
           inkscape:connector-curvature="0" />
      </g>
    </g>
  </g>
</svg>
