<?xml version="1.0" encoding="UTF-8" standalone="no"?>
<!-- Created with Inkscape (http://www.inkscape.org/) -->

<svg
   xmlns:dc="http://purl.org/dc/elements/1.1/"
   xmlns:cc="http://creativecommons.org/ns#"
   xmlns:rdf="http://www.w3.org/1999/02/22-rdf-syntax-ns#"
   xmlns:svg="http://www.w3.org/2000/svg"
   xmlns="http://www.w3.org/2000/svg"
   xmlns:sodipodi="http://sodipodi.sourceforge.net/DTD/sodipodi-0.dtd"
   xmlns:inkscape="http://www.inkscape.org/namespaces/inkscape"
   width="210mm"
   height="297mm"
   viewBox="0 0 744.09448819 1052.3622047"
   id="svg2"
   version="1.1"
   inkscape:version="0.91 r13725"
   sodipodi:docname="SG-GepardLogo.svg">
  <defs
     id="defs4" />
  <sodipodi:namedview
     id="base"
     pagecolor="#ffffff"
     bordercolor="#666666"
     borderopacity="1.0"
     inkscape:pageopacity="0.0"
     inkscape:pageshadow="2"
     inkscape:zoom="0.7"
     inkscape:cx="-82.047904"
     inkscape:cy="305.11999"
     inkscape:document-units="px"
     inkscape:current-layer="layer1"
     showgrid="false"
     inkscape:window-width="1366"
     inkscape:window-height="710"
     inkscape:window-x="0"
     inkscape:window-y="0"
     inkscape:window-maximized="1" />
  <metadata
     id="metadata7">
    <rdf:RDF>
      <cc:Work
         rdf:about="">
        <dc:format>image/svg+xml</dc:format>
        <dc:type
           rdf:resource="http://purl.org/dc/dcmitype/StillImage" />
        <dc:title />
      </cc:Work>
    </rdf:RDF>
  </metadata>
  <g
     inkscape:label="Layer 1"
     inkscape:groupmode="layer"
     id="layer1">
    <path
       style="fill:#000000;fill-opacity:1;fill-rule:evenodd;stroke:none;stroke-width:1px;stroke-linecap:butt;stroke-linejoin:miter;stroke-opacity:1"
       d="m -71.962946,838.70007 c 0,0 81.8223603,-12.12183 121.21831,-30.30457 39.39594,-18.18275 73.741126,-49.49748 109.096466,-51.51778 35.35534,-2.02031 45.45686,0 58.58885,8.08122 13.13198,8.08122 48.48732,42.42641 69.70052,81.82236 21.21321,39.39594 20.20305,40.4061 20.20305,40.4061 0,0 114.14724,-91.92388 124.24877,-110.10663 10.10152,-18.18275 14.14213,-29.29442 14.14213,-29.29442 0,0 -34.34518,32.32488 -54.54823,38.38579 -20.20306,6.06092 -62.62946,-3.03046 -80.81221,-25.25381 -18.18274,-22.22336 -53.53808,-53.53809 -44.44671,-93.94419 9.09137,-40.4061 24.24366,-83.84266 76.77159,-96.97464 52.52794,-13.13199 84.85282,-25.25382 109.09648,-16.16244 24.24366,9.09137 55.55839,25.25381 46.46702,54.54823 -9.09138,29.29443 -37.37565,103.03556 -37.37565,103.03556 0,0 64.64976,-88.89342 68.69037,-107.07617 4.04061,-18.18274 13.13199,-86.87311 13.13199,-86.87311 l 23.23351,-39.39595 c 0,0 -23.23351,-20.20305 -85.86297,-24.24367 -62.62946,-4.04061 -77.78175,-7.07106 -77.78175,-7.07106 0,0 -27.27412,-31.31473 -79.80205,-31.31473 -52.52793,0 -283.852856,53.53808 -332.340176,55.55839 -48.48733,2.0203 -487.903684,-1.01015 -543.462074,-4.04061 -55.55839,-3.03046 -85.86297,-5.05076 -85.86297,-5.05076 0,0 87.88327,24.24366 255.5686,28.28427 167.68532,4.04061 443.456964,1.01015 443.456964,1.01015 0,0 46.467016,-3.03046 39.39595,28.28427 -7.07107,31.31473 -90.9137297,245.46707 -130.30968,282.84271 z"
       id="path4147"
       inkscape:connector-curvature="0" />
    <path
       style="fill:#ffffff;fill-opacity:1;fill-rule:evenodd;stroke:none;stroke-width:1px;stroke-linecap:butt;stroke-linejoin:miter;stroke-opacity:1"
       d="m 247.14285,448.07649 c 0,0 60.71429,16.42857 85,32.14286 24.28572,15.71428 24.28572,15.71428 24.28572,15.71428 0,0 18.57143,1.42858 25,-10.71428 6.42857,-12.14286 6.42857,-22.14286 -2.14286,-25 C 370.71428,457.36221 335,447.36221 310,445.93363 c -25,-1.42857 -62.85715,2.14286 -62.85715,2.14286 z"
       id="path4149"
       inkscape:connector-curvature="0" />
    <path
       style="fill:#000000;fill-opacity:1;fill-rule:evenodd;stroke:none;stroke-width:1px;stroke-linecap:butt;stroke-linejoin:miter;stroke-opacity:1"
       d="m 52.857143,581.64792 18.5714,-45.71429 c 0,0 11.7857,-12.85714 -15,-12.14285 -26.7857,0.71428 -148.9285,0 -148.9285,0 0,0 -22.650903,1.93154 -32.303503,18.65041 -9.6526,16.71886 -129.8394,247.06387 -129.8394,247.06387 0,0 -21.4286,35.71429 19.2857,35.71429 l 147.500003,0 c 0,0 22.1429,-6.42857 35.3572,-28.92857 13.2142,-22.5 65.3088,-131.08441 65.3088,-131.08441 l -101.0152,0 -8.3338,26.51651 30.8097,0 -52.780503,108.5914 -70.9632,0 121.470803,-245.71961 100.9265,0 -6.2837,26.9534 z"
       id="path4736"
       inkscape:connector-curvature="0"
       sodipodi:nodetypes="ccscscscscccccccccc" />
    <path
       style="fill:#000000;fill-opacity:1;fill-rule:evenodd;stroke:#000000;stroke-width:7.00528669px;stroke-linecap:butt;stroke-linejoin:miter;stroke-opacity:1"
       d="m -343.1721,807.50039 67.88558,0 97.665,-182.01233 -59.33007,0 27.46774,-49.29878 62.34127,-5.30735 19.59548,-39.4217 -92.07755,-7.07637 -77.24528,154.08568 48.03881,0 -50.43257,82.81012 -53.16341,0 -37.89557,46.53381 z"
       id="path5378"
       inkscape:connector-curvature="0"
       sodipodi:nodetypes="cccccccccccccc" />
  </g>
</svg>
